<svg xmlns="http://www.w3.org/2000/svg" xmlns:xlink="http://www.w3.org/1999/xlink" width="280" zoomAndPan="magnify" viewBox="0 0 210 67.499998" height="90" preserveAspectRatio="xMidYMid meet" version="1.0"><defs><g/><clipPath id="865df39077"><path d="M 0.773438 0 L 209.226562 0 L 209.226562 67.003906 L 0.773438 67.003906 Z M 0.773438 0 " clip-rule="nonzero"/></clipPath><clipPath id="8d6d65dd2b"><rect x="0" width="210" y="0" height="68"/></clipPath></defs><g clip-path="url(#865df39077)"><g transform="matrix(1, 0, 0, 1, 0.000000000000000111, 0)"><g clip-path="url(#8d6d65dd2b)"><g fill="#e60012" fill-opacity="1"><g transform="translate(0.997388, 53.621698)"><g><path d="M 13.9375 -5.78125 C 13.9375 -3.925781 13.363281 -2.507812 12.21875 -1.53125 C 11.082031 -0.550781 9.726562 -0.0625 8.15625 -0.0625 C 6.625 -0.0625 5.285156 -0.550781 4.140625 -1.53125 C 3.003906 -2.507812 2.4375 -3.925781 2.4375 -5.78125 L 2.4375 -35.25 C 2.4375 -37.476562 2.832031 -39.09375 3.625 -40.09375 C 4.414062 -41.09375 5.851562 -41.59375 7.9375 -41.59375 C 9.84375 -41.59375 11.296875 -41.289062 12.296875 -40.6875 C 13.296875 -40.082031 14.210938 -39.25 15.046875 -38.1875 L 22.640625 -28.5 L 30.171875 -38.25 C 30.960938 -39.269531 31.851562 -40.082031 32.84375 -40.6875 C 33.84375 -41.289062 35.15625 -41.59375 36.78125 -41.59375 C 38.875 -41.59375 40.335938 -41.09375 41.171875 -40.09375 C 42.015625 -39.09375 42.4375 -37.476562 42.4375 -35.25 L 42.4375 -5.78125 C 42.4375 -3.925781 41.863281 -2.507812 40.71875 -1.53125 C 39.582031 -0.550781 38.222656 -0.0625 36.640625 -0.0625 C 35.109375 -0.0625 33.773438 -0.550781 32.640625 -1.53125 C 31.503906 -2.507812 30.9375 -3.925781 30.9375 -5.78125 L 30.9375 -23.34375 L 25.78125 -16.515625 C 24.664062 -15.117188 23.503906 -14.421875 22.296875 -14.421875 C 21.035156 -14.421875 19.894531 -15.140625 18.875 -16.578125 L 13.9375 -23.34375 Z M 13.9375 -5.78125 "/></g></g></g><g fill="#e60012" fill-opacity="1"><g transform="translate(45.869052, 53.621698)"><g><path d="M 1.671875 -20.96875 C 1.671875 -23.894531 2.226562 -26.65625 3.34375 -29.25 C 4.457031 -31.851562 5.96875 -34.117188 7.875 -36.046875 C 9.78125 -37.984375 12.03125 -39.507812 14.625 -40.625 C 17.226562 -41.738281 19.992188 -42.296875 22.921875 -42.296875 C 25.847656 -42.296875 28.609375 -41.738281 31.203125 -40.625 C 33.804688 -39.507812 36.070312 -37.984375 38 -36.046875 C 39.925781 -34.117188 41.445312 -31.851562 42.5625 -29.25 C 43.675781 -26.65625 44.234375 -23.894531 44.234375 -20.96875 C 44.234375 -18.039062 43.675781 -15.273438 42.5625 -12.671875 C 41.445312 -10.078125 39.925781 -7.828125 38 -5.921875 C 36.070312 -4.015625 33.804688 -2.503906 31.203125 -1.390625 C 28.609375 -0.273438 25.847656 0.28125 22.921875 0.28125 C 19.992188 0.28125 17.226562 -0.273438 14.625 -1.390625 C 12.03125 -2.503906 9.78125 -4.015625 7.875 -5.921875 C 5.96875 -7.828125 4.457031 -10.078125 3.34375 -12.671875 C 2.226562 -15.273438 1.671875 -18.039062 1.671875 -20.96875 Z M 13.375 -20.828125 C 13.375 -19.484375 13.617188 -18.226562 14.109375 -17.0625 C 14.597656 -15.90625 15.28125 -14.882812 16.15625 -14 C 17.039062 -13.125 18.0625 -12.441406 19.21875 -11.953125 C 20.382812 -11.460938 21.640625 -11.21875 22.984375 -11.21875 C 24.335938 -11.21875 25.601562 -11.460938 26.78125 -11.953125 C 27.96875 -12.441406 28.988281 -13.125 29.84375 -14 C 30.707031 -14.882812 31.394531 -15.90625 31.90625 -17.0625 C 32.414062 -18.226562 32.671875 -19.484375 32.671875 -20.828125 C 32.671875 -22.179688 32.414062 -23.445312 31.90625 -24.625 C 31.394531 -25.8125 30.707031 -26.832031 29.84375 -27.6875 C 28.988281 -28.550781 27.96875 -29.238281 26.78125 -29.75 C 25.601562 -30.257812 24.335938 -30.515625 22.984375 -30.515625 C 21.640625 -30.515625 20.382812 -30.257812 19.21875 -29.75 C 18.0625 -29.238281 17.039062 -28.550781 16.15625 -27.6875 C 15.28125 -26.832031 14.597656 -25.8125 14.109375 -24.625 C 13.617188 -23.445312 13.375 -22.179688 13.375 -20.828125 Z M 13.375 -20.828125 "/></g></g></g><g fill="#e60012" fill-opacity="1"><g transform="translate(91.785863, 53.621698)"><g><path d="M 1.671875 -20.96875 C 1.671875 -23.894531 2.226562 -26.65625 3.34375 -29.25 C 4.457031 -31.851562 5.96875 -34.117188 7.875 -36.046875 C 9.78125 -37.984375 12.03125 -39.507812 14.625 -40.625 C 17.226562 -41.738281 19.992188 -42.296875 22.921875 -42.296875 C 25.847656 -42.296875 28.609375 -41.738281 31.203125 -40.625 C 33.804688 -39.507812 36.070312 -37.984375 38 -36.046875 C 39.925781 -34.117188 41.445312 -31.851562 42.5625 -29.25 C 43.675781 -26.65625 44.234375 -23.894531 44.234375 -20.96875 C 44.234375 -18.039062 43.675781 -15.273438 42.5625 -12.671875 C 41.445312 -10.078125 39.925781 -7.828125 38 -5.921875 C 36.070312 -4.015625 33.804688 -2.503906 31.203125 -1.390625 C 28.609375 -0.273438 25.847656 0.28125 22.921875 0.28125 C 19.992188 0.28125 17.226562 -0.273438 14.625 -1.390625 C 12.03125 -2.503906 9.78125 -4.015625 7.875 -5.921875 C 5.96875 -7.828125 4.457031 -10.078125 3.34375 -12.671875 C 2.226562 -15.273438 1.671875 -18.039062 1.671875 -20.96875 Z M 13.375 -20.828125 C 13.375 -19.484375 13.617188 -18.226562 14.109375 -17.0625 C 14.597656 -15.90625 15.28125 -14.882812 16.15625 -14 C 17.039062 -13.125 18.0625 -12.441406 19.21875 -11.953125 C 20.382812 -11.460938 21.640625 -11.21875 22.984375 -11.21875 C 24.335938 -11.21875 25.601562 -11.460938 26.78125 -11.953125 C 27.96875 -12.441406 28.988281 -13.125 29.84375 -14 C 30.707031 -14.882812 31.394531 -15.90625 31.90625 -17.0625 C 32.414062 -18.226562 32.671875 -19.484375 32.671875 -20.828125 C 32.671875 -22.179688 32.414062 -23.445312 31.90625 -24.625 C 31.394531 -25.8125 30.707031 -26.832031 29.84375 -27.6875 C 28.988281 -28.550781 27.96875 -29.238281 26.78125 -29.75 C 25.601562 -30.257812 24.335938 -30.515625 22.984375 -30.515625 C 21.640625 -30.515625 20.382812 -30.257812 19.21875 -29.75 C 18.0625 -29.238281 17.039062 -28.550781 16.15625 -27.6875 C 15.28125 -26.832031 14.597656 -25.8125 14.109375 -24.625 C 13.617188 -23.445312 13.375 -22.179688 13.375 -20.828125 Z M 13.375 -20.828125 "/></g></g></g><g fill="#e60012" fill-opacity="1"><g transform="translate(135.472998, 53.621698)"><g><path d="M 26.828125 -37.96875 C 27.335938 -39.269531 28.046875 -40.222656 28.953125 -40.828125 C 29.859375 -41.429688 30.84375 -41.734375 31.90625 -41.734375 C 32.65625 -41.734375 33.398438 -41.59375 34.140625 -41.3125 C 34.878906 -41.03125 35.550781 -40.644531 36.15625 -40.15625 C 36.757812 -39.675781 37.234375 -39.097656 37.578125 -38.421875 C 37.929688 -37.742188 38.109375 -36.988281 38.109375 -36.15625 C 38.109375 -35.363281 37.945312 -34.625 37.625 -33.9375 L 25.21875 -3.828125 C 24.101562 -1.273438 22.335938 0 19.921875 0 C 17.460938 0 15.515625 -1.273438 14.078125 -3.828125 L 1.671875 -33.9375 C 1.347656 -34.625 1.1875 -35.363281 1.1875 -36.15625 C 1.1875 -36.988281 1.359375 -37.742188 1.703125 -38.421875 C 2.054688 -39.097656 2.535156 -39.675781 3.140625 -40.15625 C 3.742188 -40.644531 4.40625 -41.03125 5.125 -41.3125 C 5.84375 -41.59375 6.597656 -41.734375 7.390625 -41.734375 C 8.453125 -41.734375 9.4375 -41.429688 10.34375 -40.828125 C 11.25 -40.222656 11.957031 -39.269531 12.46875 -37.96875 L 19.640625 -19.578125 Z M 26.828125 -37.96875 "/></g></g></g><g fill="#e60012" fill-opacity="1"><g transform="translate(174.840225, 53.621698)"><g><path d="M 22.15625 -38.671875 C 22.757812 -39.691406 23.46875 -40.441406 24.28125 -40.921875 C 25.09375 -41.410156 25.960938 -41.65625 26.890625 -41.65625 C 27.640625 -41.65625 28.382812 -41.492188 29.125 -41.171875 C 29.863281 -40.847656 30.523438 -40.429688 31.109375 -39.921875 C 31.691406 -39.410156 32.15625 -38.804688 32.5 -38.109375 C 32.851562 -37.410156 33.03125 -36.691406 33.03125 -35.953125 C 33.03125 -34.972656 32.703125 -33.953125 32.046875 -32.890625 L 22.859375 -18.046875 L 22.859375 -5.71875 C 22.859375 -3.851562 22.285156 -2.429688 21.140625 -1.453125 C 20.003906 -0.484375 18.671875 0 17.140625 0 C 15.554688 0 14.195312 -0.484375 13.0625 -1.453125 C 11.925781 -2.429688 11.359375 -3.851562 11.359375 -5.71875 L 11.359375 -18.046875 L 2.09375 -32.890625 C 1.4375 -33.953125 1.109375 -34.972656 1.109375 -35.953125 C 1.109375 -36.691406 1.28125 -37.410156 1.625 -38.109375 C 1.976562 -38.804688 2.445312 -39.410156 3.03125 -39.921875 C 3.613281 -40.429688 4.273438 -40.847656 5.015625 -41.171875 C 5.753906 -41.492188 6.5 -41.65625 7.25 -41.65625 C 8.175781 -41.65625 9.046875 -41.410156 9.859375 -40.921875 C 10.671875 -40.441406 11.378906 -39.691406 11.984375 -38.671875 L 17.0625 -29.953125 Z M 22.15625 -38.671875 "/></g></g></g></g></g></g></svg>