<svg viewBox="0 0 200 220" xmlns="http://www.w3.org/2000/svg" fill="none" role="img" aria-label="Mochila de delivery Moovy">
  <ellipse cx="100" cy="206" rx="66" ry="10" fill="#0F8A4D" opacity="0.12"/>
  <!-- straps -->
  <rect x="50" y="38" width="14" height="74" rx="7" fill="#0f7a3d"/>
  <rect x="136" y="38" width="14" height="74" rx="7" fill="#0f7a3d"/>
  <!-- top handle -->
  <path d="M82 46 q18 -22 36 0" stroke="#0f7a3d" stroke-width="11" stroke-linecap="round" fill="none"/>
  <!-- body -->
  <rect x="38" y="52" width="124" height="144" rx="24" fill="#0F8A4D"/>
  <!-- top flap -->
  <path d="M38 86 q0 -34 34 -34 h56 q34 0 34 34 v6 H38 Z" fill="#12924a"/>
  <!-- clasp -->
  <rect x="88" y="80" width="24" height="13" rx="4" fill="#0b6b37"/>
  <!-- front panel -->
  <rect x="60" y="104" width="80" height="76" rx="16" fill="#eafff2"/>
  <!-- friendly face on the panel -->
  <circle cx="84" cy="134" r="5.5" fill="#0F8A4D"/>
  <circle cx="116" cy="134" r="5.5" fill="#0F8A4D"/>
  <path d="M82 150 q18 14 36 0" stroke="#0F8A4D" stroke-width="5.5" stroke-linecap="round" fill="none"/>
  <!-- little corner spark -->
  <path d="M150 40 l3 7 7 3 -7 3 -3 7 -3 -7 -7 -3 7 -3 Z" fill="#22c55e"/>
</svg>
